<svg width="73" height="63" viewBox="0 0 73 63" fill="none" xmlns="http://www.w3.org/2000/svg">
<path d="M0 52.8182V0H10.5733L28.9238 29.1836C29.6372 30.2994 30.4122 31.5933 31.2487 33.0655C32.0852 34.5376 32.9621 36.1815 33.8793 37.9973C34.7922 39.8046 35.6861 41.7603 36.5608 43.8645L35.4908 44.3991C35.3251 42.507 35.1893 40.5321 35.0831 38.4746C34.977 36.417 34.8941 34.4549 34.8347 32.5882C34.7774 30.7237 34.7455 29.1709 34.7455 27.9427V0H44.3316V52.8182H33.72L17.1594 26.5427C16.2103 25.0282 15.2485 23.4627 14.3377 21.8464C13.4269 20.23 12.3887 18.3845 11.2995 16.3291C10.2103 14.2736 8.9364 11.8745 7.47779 9.06181L8.82174 8.77544C8.98734 11.3506 9.12324 13.7858 9.22939 16.0809C9.33767 18.3718 9.42047 20.4145 9.47779 22.1964C9.53512 23.9782 9.56698 25.4227 9.56698 26.5046V52.8182H0Z" fill="white"/>
<path d="M33.5035 52.8182V0H53.803C57.5929 0 60.7521 0.591804 63.2999 1.77544C65.6538 2.79399 67.6498 4.4913 69.0324 6.65001C70.3234 8.78207 70.9857 11.2349 70.9433 13.7264C70.996 15.6243 70.5804 17.506 69.7331 19.2054C68.9552 20.6971 67.8303 21.9803 66.4528 22.9473C65.0278 23.9302 63.4313 24.6381 61.7458 25.0346V25.4545C63.6804 25.5814 65.5536 26.1848 67.198 27.2109C68.9409 28.2935 70.3807 29.7998 71.3828 31.5891C72.5073 33.6558 73.0633 35.9833 72.9943 38.3345C73.0434 40.968 72.348 43.5619 70.9879 45.8182C69.5387 48.1021 67.4377 49.8997 64.956 50.9791C62.2681 52.2518 58.9007 52.8776 54.854 52.8564L33.5035 52.8182ZM42.9431 22.4636H52.7775C54.3283 22.4908 55.8659 22.1757 57.2808 21.5409C58.5446 20.9798 59.6274 20.0787 60.4082 18.9382C61.1857 17.7412 61.5811 16.3365 61.5419 14.91C61.5702 13.9473 61.3876 12.99 61.007 12.1052C60.6263 11.2203 60.0567 10.4293 59.3381 9.78728C57.8731 8.45091 55.733 7.78271 52.9177 7.78271H42.9303L42.9431 22.4636ZM42.9431 44.9845H53.4845C56.9156 44.9845 59.4294 44.31 61.026 42.9609C61.8028 42.3221 62.4227 41.5137 62.8379 40.5981C63.2531 39.6824 63.4525 38.6838 63.4209 37.6791C63.4459 36.1841 63.0414 34.7133 62.2553 33.4409C61.436 32.1701 60.2809 31.1504 58.9177 30.4945C57.3098 29.7388 55.5476 29.3684 53.7712 29.4127H42.9431V44.9845Z" fill="white"/>
<path d="M44.3316 0H32.8665V63H44.3316V0Z" fill="#9A95C9"/>
</svg>
